HIERARCHY
ROOT Hips
{
	OFFSET 0.000000 0.000000 0.000000
	CHANNELS 6 Xposition Yposition Zposition Zrotation Yrotation Xrotation 
	JOINT LHipJoint
	{
		OFFSET 0.000000 0.000000 0.000000
		CHANNELS 3 Zrotation Yrotation Xrotation
		JOINT LeftUpLeg
		{
			OFFSET 1.363060 -1.794630 0.839290
			CHANNELS 3 Zrotation Yrotation Xrotation
			JOINT LeftLeg
			{
				OFFSET 2.448110 -6.726130 0.000000
				CHANNELS 3 Zrotation Yrotation Xrotation
				JOINT LeftFoot
				{
					OFFSET 2.562200 -7.039590 0.000000
					CHANNELS 3 Zrotation Yrotation Xrotation
					JOINT LeftToeBase
					{
						OFFSET 0.157640 -0.433110 2.322550
						CHANNELS 3 Zrotation Yrotation Xrotation
						End Site
						{
							OFFSET 0.000000 0.000000 0.000000
						}
					}
				}
			}
		}
	}
	JOINT RHipJoint
	{
		OFFSET 0.000000 0.000000 0.000000
		CHANNELS 3 Zrotation Yrotation Xrotation
		JOINT RightUpLeg
		{
			OFFSET -1.305520 -1.794630 0.839290
			CHANNELS 3 Zrotation Yrotation Xrotation
			JOINT RightLeg
			{
				OFFSET -2.542530 -6.985550 0.000000
				CHANNELS 3 Zrotation Yrotation Xrotation
				JOINT RightFoot
				{
					OFFSET -2.568260 -7.056230 0.000000
					CHANNELS 3 Zrotation Yrotation Xrotation
					JOINT RightToeBase
					{
						OFFSET -0.164730 -0.452590 2.363150
						CHANNELS 3 Zrotation Yrotation Xrotation
						End Site
						{
							OFFSET 0.000000 0.000000 0.000000
						}
					}
				}
			}
		}
	}
	JOINT LowerBack
	{
		OFFSET 0.000000 0.000000 0.000000
		CHANNELS 3 Zrotation Yrotation Xrotation
		JOINT Spine
		{
			OFFSET 0.028270 2.035590 -0.193380
			CHANNELS 3 Zrotation Yrotation Xrotation
			JOINT Spine1
			{
				OFFSET 0.056720 2.048850 -0.042750
				CHANNELS 3 Zrotation Yrotation Xrotation
				JOINT Neck
				{
					OFFSET 0.000000 0.000000 0.000000
					CHANNELS 3 Zrotation Yrotation Xrotation
					JOINT Neck1
					{
						OFFSET -0.054170 1.746240 0.172020
						CHANNELS 3 Zrotation Yrotation Xrotation
						JOINT Head
						{
							OFFSET 0.104070 1.761360 -0.123970
							CHANNELS 3 Zrotation Yrotation Xrotation
							End Site
							{
								OFFSET 0.000000 0.000000 0.000000
							}
						}
					}
				}
				JOINT LeftShoulder
				{
					OFFSET 0.000000 0.000000 0.000000
					CHANNELS 3 Zrotation Yrotation Xrotation
					JOINT LeftArm
					{
						OFFSET 3.362410 1.200890 -0.311210
						CHANNELS 3 Zrotation Yrotation Xrotation
						JOINT LeftForeArm
						{
							OFFSET 4.983000 -0.000000 -0.000000
							CHANNELS 3 Zrotation Yrotation Xrotation
							JOINT LeftHand
							{
								OFFSET 3.483560 -0.000000 -0.000000
								CHANNELS 3 Zrotation Yrotation Xrotation
								JOINT LeftFingerBase
								{
									OFFSET 0.000000 0.000000 0.000000
									CHANNELS 3 Zrotation Yrotation Xrotation
									JOINT LeftHandIndex1
									{
										OFFSET 0.715260 -0.000000 -0.000000
										CHANNELS 3 Zrotation Yrotation Xrotation
										End Site
										{
											OFFSET 0.000000 0.000000 0.000000
										}
									}
								}
								JOINT LThumb
								{
									OFFSET 0.000000 0.000000 0.000000
									CHANNELS 3 Zrotation Yrotation Xrotation
									End Site
									{
										OFFSET 0.000000 0.000000 0.000000
									}
								}
							}
						}
					}
				}
				JOINT RightShoulder
				{
					OFFSET 0.000000 0.000000 0.000000
					CHANNELS 3 Zrotation Yrotation Xrotation
					JOINT RightArm
					{
						OFFSET -3.136600 1.374050 -0.404650
						CHANNELS 3 Zrotation Yrotation Xrotation
						JOINT RightForeArm
						{
							OFFSET -5.241900 -0.000000 -0.000000
							CHANNELS 3 Zrotation Yrotation Xrotation
							JOINT RightHand
							{
								OFFSET -3.444170 -0.000000 -0.000000
								CHANNELS 3 Zrotation Yrotation Xrotation
								JOINT RightFingerBase
								{
									OFFSET 0.000000 0.000000 0.000000
									CHANNELS 3 Zrotation Yrotation Xrotation
									JOINT RightHandIndex1
									{
										OFFSET -0.622530 -0.000000 -0.000000
										CHANNELS 3 Zrotation Yrotation Xrotation
										End Site
										{
											OFFSET 0.000000 0.000000 0.000000
										}
									}
								}
								JOINT RThumb
								{
									OFFSET 0.000000 0.000000 0.000000
									CHANNELS 3 Zrotation Yrotation Xrotation
									End Site
									{
										OFFSET 0.000000 0.000000 0.000000
									}
								}
							}
						}
					}
				}
			}
		}
	}
}
MOTION
Frames: 10
Frame Time: 0.008333
-0.117481 17.125842 8.428888 2.046873 9.655450 19.604938 -2.817070 -1.193415 0.459806 -14.808569 -0.859725 -0.361944 -0.379812 6.992897 19.552241 2.024410 -10.898827 -4.357114 2.054335 -8.978057 -25.727031 -0.331553 2.144037 -4.284827 12.277191 5.713507 -45.520896 0.639012 -8.402367 19.527423 -0.554998 1.928210 0.330375 -1.861837 8.415166 -24.073287 1.833325 -3.045036 -8.421727 1.712247 -4.586951 -10.099761 -1.195158 -2.251033 -0.413170 -1.814590 -0.645900 -8.933299 4.899556 -1.168910 10.326870 0.604767 -0.334941 3.354591 12.810558 6.926190 -0.859884 -93.505457 -10.900223 37.794018 33.588175 -49.620269 -14.891834 0.052851 -0.325438 -14.021986 21.913267 -17.427853 -6.744574 -7.125000 0.000000 0.000000 -3.928458 11.695567 3.057420 -13.077417 -6.567045 1.667962 103.533446 -24.997135 -52.310680 -3.172753 10.506734 -0.021966 -1.604390 0.121834 51.444711 -14.465930 -33.972751 7.361866 7.125000 0.000000 0.000000 22.852027 -62.198724 -9.831819
-0.114663 17.125671 8.557506 1.902407 9.486068 19.637417 -2.787898 -1.176026 0.469786 -14.747481 -1.029141 -0.045561 -0.362296 7.039194 19.720242 1.941481 -10.582401 -3.721910 2.091927 -9.054684 -25.966863 -0.368086 2.105619 -4.261902 12.621458 5.727527 -45.792396 0.532012 -8.694094 20.357997 -0.552611 1.999562 1.190079 -2.222792 9.315500 -26.787250 2.136888 -2.943533 -8.517249 1.721491 -4.508643 -10.133926 -1.289781 -2.214775 -0.476284 -1.767136 -0.619611 -8.936761 4.773356 -1.119056 10.335315 0.545947 -0.313439 3.358238 12.808747 6.925178 -0.853699 -93.623510 -10.589851 37.538983 33.903009 -49.821850 -15.097048 0.050326 -0.327794 -13.994364 21.963445 -17.764315 -6.888582 -7.125000 0.000000 0.000000 -3.915553 11.335059 3.077147 -13.072937 -6.560172 1.652919 103.403639 -24.956058 -53.497473 -3.160413 10.354749 -0.011567 -1.592713 0.158994 52.574821 -14.389109 -33.942491 7.315640 7.125000 0.000000 0.000000 22.915089 -62.161769 -9.840179
-0.114106 17.127648 8.687198 1.741812 9.298447 19.668725 -2.759466 -1.160957 0.477979 -14.672785 -1.192410 0.231825 -0.333632 7.111605 19.961485 1.865149 -10.294076 -3.087639 2.131311 -9.133973 -26.215605 -0.404634 2.069862 -4.239660 12.852477 5.900843 -46.025314 0.413606 -8.991145 21.207875 -0.578770 2.309724 1.804292 -2.227520 9.324767 -26.816516 2.421150 -2.837564 -8.597411 1.739256 -4.422990 -10.175362 -1.341326 -2.170412 -0.559121 -1.753449 -0.592165 -8.917286 4.654652 -1.066690 10.336431 0.497012 -0.291832 3.354030 12.805180 6.925026 -0.846458 -93.768200 -10.204594 37.271906 34.238884 -50.035342 -15.318233 0.045530 -0.328196 -13.917078 21.916531 -18.063525 -6.987303 -7.125000 0.000000 0.000000 -3.964488 11.023766 3.141212 -13.064158 -6.552914 1.636953 103.235172 -24.949214 -54.424909 -3.133679 10.196594 -0.005093 -1.572171 0.190159 53.491828 -14.213349 -33.715294 7.179000 7.125000 0.000000 0.000000 22.902181 -61.925982 -9.706564
-0.116635 17.127782 8.815263 1.593019 9.085353 19.701968 -2.732892 -1.149540 0.481348 -14.607727 -1.345139 0.445501 -0.292789 7.214824 20.288243 1.790659 -10.013587 -2.441774 2.185790 -9.241654 -26.554973 -0.438703 2.037249 -4.217929 12.974103 6.234891 -46.194123 0.295524 -9.280656 22.034507 -0.592596 2.508977 2.307583 -2.168930 9.203342 -26.437869 2.649804 -2.739103 -8.655778 1.762543 -4.338312 -10.216907 -1.352156 -2.123059 -0.642167 -1.736502 -0.563157 -8.918393 4.528087 -1.010973 10.343268 0.442101 -0.268414 3.357284 12.802364 6.928318 -0.839131 -93.921120 -9.805314 36.980820 34.579886 -50.251335 -15.544835 0.040564 -0.326643 -13.827404 21.824958 -18.296811 -7.045712 -7.125000 0.000000 0.000000 -4.038503 10.786147 3.219690 -13.052992 -6.543946 1.620806 103.073352 -24.932416 -55.042799 -3.118951 10.088772 -0.002438 -1.554575 0.209775 54.126782 -14.014078 -33.519789 7.036167 7.125000 0.000000 0.000000 22.937962 -61.709903 -9.604841
-0.125504 17.124134 8.939989 1.468468 8.819935 19.739186 -2.710134 -1.145624 0.474804 -14.562468 -1.476215 0.528312 -0.226930 7.381322 20.790658 1.719951 -9.749195 -1.772098 2.271273 -9.407656 -27.080494 -0.467680 2.011093 -4.197249 12.871033 6.899093 -46.231249 0.178108 -9.554678 22.813389 -0.581090 2.480414 2.583035 -1.980282 8.813469 -25.221346 2.764235 -2.656062 -8.669375 1.797171 -4.255635 -10.258679 -1.279358 -2.069565 -0.725645 -1.712856 -0.530942 -8.961776 4.385372 -0.948374 10.361859 0.374916 -0.241275 3.375865 12.801094 6.938687 -0.831626 -94.090948 -9.377228 36.640413 34.931418 -50.472465 -15.782567 0.035249 -0.321071 -13.712288 21.641655 -18.394685 -7.021315 -7.125000 0.000000 0.000000 -4.164032 10.699860 3.327773 -13.036922 -6.531465 1.604286 102.925186 -24.895173 -55.024862 -3.128884 10.084336 -0.007628 -1.543029 0.205667 54.182380 -13.766515 -33.389383 6.880615 7.125000 0.000000 0.000000 23.073751 -61.534304 -9.568625
-0.132737 17.119990 9.064424 1.360252 8.568348 19.779449 -2.686782 -1.145727 0.463476 -14.539887 -1.621599 0.581267 -0.152594 7.566425 21.348154 1.651654 -9.519285 -1.055732 2.330667 -9.523207 -27.446159 -0.496354 1.986313 -4.176094 12.764215 7.518124 -46.269469 0.060075 -9.823946 23.582657 -0.569792 2.449031 2.856581 -1.825042 8.491638 -24.217791 2.882022 -2.577510 -8.692071 1.828953 -4.179138 -10.296937 -1.222432 -2.020705 -0.798409 -1.680237 -0.497158 -9.004448 4.236677 -0.883495 10.374140 0.303915 -0.213182 3.390982 12.801674 6.949558 -0.822911 -94.268242 -8.956187 36.292397 35.272930 -50.686696 -16.014298 0.029815 -0.315359 -13.617401 21.440639 -18.485147 -6.987831 -7.125000 0.000000 0.000000 -4.300467 10.623555 3.443959 -13.024853 -6.520434 1.585837 102.774039 -24.810363 -55.338351 -3.146668 10.061016 -0.010048 -1.531636 0.211440 54.532219 -13.566962 -33.315176 6.761002 7.125000 0.000000 0.000000 23.212713 -61.422059 -9.568649
-0.133903 17.114009 9.187781 1.312609 8.368045 19.831002 -2.661223 -1.160733 0.434405 -14.601403 -1.820043 0.523506 -0.046821 7.820518 22.109910 1.592299 -9.417248 -0.166231 2.293315 -9.451672 -27.219024 -0.523902 1.966639 -4.153180 12.643497 7.969647 -46.311751 -0.060247 -10.075583 24.316278 -0.559267 2.407195 3.123061 -1.793695 8.422136 -24.003989 3.012251 -2.515600 -8.748512 1.850177 -4.125559 -10.322164 -1.224367 -1.989028 -0.831441 -1.614340 -0.457554 -9.044483 4.065801 -0.810160 10.363016 0.218763 -0.181551 3.393251 12.809117 6.962288 -0.809703 -94.473222 -8.561277 35.916160 35.577285 -50.875344 -16.223774 0.023943 -0.309130 -13.597527 21.173939 -18.548125 -6.920645 -7.125000 0.000000 0.000000 -4.477342 10.584265 3.590197 -13.027621 -6.514774 1.560235 102.611840 -24.549161 -56.880878 -3.193569 9.967666 -0.002197 -1.520805 0.253852 55.973204 -13.545442 -33.449378 6.774666 7.125000 0.000000 0.000000 23.363443 -61.544751 -9.703067
-0.134476 17.108453 9.310990 1.253279 8.172653 19.880536 -2.634957 -1.177225 0.403786 -14.652842 -2.014210 0.448661 0.063389 8.081396 22.894455 1.533244 -9.321112 0.768147 2.234125 -9.333619 -26.847656 -0.551119 1.946527 -4.129599 12.544975 8.403913 -46.354999 -0.180814 -10.325893 25.048395 -0.549932 2.381409 3.373341 -1.777123 8.384645 -23.889086 3.163746 -2.449920 -8.806779 1.871408 -4.070453 -10.344803 -1.236859 -1.957250 -0.857621 -1.549891 -0.418672 -9.100246 3.897820 -0.737445 10.357923 0.135567 -0.150027 3.402241 12.817345 6.975097 -0.796554 -94.679916 -8.178931 35.543326 35.869346 -51.056076 -16.424920 0.018309 -0.303155 -13.576416 20.917766 -18.605530 -6.854974 -7.125000 0.000000 0.000000 -4.647024 10.549771 3.730208 -13.031462 -6.509430 1.534240 102.446673 -24.278391 -58.490763 -3.240746 9.868143 0.005841 -1.508153 0.299134 57.463751 -13.552568 -33.558508 6.799537 7.125000 0.000000 0.000000 23.464056 -61.653544 -9.807651
-0.129560 17.106831 9.432827 1.085581 8.022790 19.911357 -2.602141 -1.207501 0.358825 -14.610844 -2.168726 0.215403 0.214753 8.405178 23.890315 1.476978 -9.279694 2.118664 1.972428 -8.784221 -25.138850 -0.575269 1.922351 -4.099834 12.652273 8.678161 -46.407202 -0.303653 -10.563895 25.766564 -0.551637 2.504446 3.473410 -1.897546 8.643977 -24.691244 3.512447 -2.349279 -8.881972 1.892688 -4.001181 -10.343447 -1.347253 -1.924542 -0.820258 -1.498869 -0.386480 -9.301848 3.756678 -0.670475 10.408743 0.070509 -0.119484 3.473539 12.832842 6.988634 -0.783951 -94.902491 -7.913094 35.202057 36.047413 -51.163391 -16.548825 0.014879 -0.299539 -13.543828 20.759201 -18.611254 -6.803344 -7.125000 0.000000 0.000000 -4.750001 10.559747 3.812476 -13.045247 -6.507017 1.504591 102.254003 -23.918899 -60.725242 -3.290489 9.711395 0.015611 -1.478622 0.371020 59.413877 -13.825307 -33.435157 6.928329 7.125000 0.000000 0.000000 23.099950 -61.633450 -9.635598
-0.124644 17.105210 9.554664 0.917883 7.872926 19.942178 -2.569325 -1.237776 0.313864 -14.568845 -2.323241 -0.017856 0.366116 8.728960 24.886174 1.420712 -9.238276 3.469181 1.710732 -8.234824 -23.430044 -0.599419 1.898176 -4.070069 12.759572 8.952409 -46.459405 -0.426493 -10.801897 26.484732 -0.553343 2.627482 3.573478 -2.017969 8.903310 -25.493403 3.861148 -2.248637 -8.957165 1.913969 -3.931910 -10.342091 -1.457647 -1.891835 -0.782895 -1.447847 -0.354288 -9.503451 3.615536 -0.603505 10.459564 0.005451 -0.088941 3.544838 12.848339 7.002170 -0.771348 -95.125066 -7.647256 34.860787 36.225480 -51.270707 -16.672729 0.011450 -0.295923 -13.511241 20.600636 -18.616979 -6.751714 -7.125000 0.000000 0.000000 -4.852977 10.569723 3.894744 -13.059032 -6.504604 1.474943 102.061333 -23.559407 -62.959722 -3.340233 9.554647 0.025380 -1.449092 0.442906 61.364003 -14.098047 -33.311805 7.057121 7.125000 0.000000 0.000000 22.735844 -61.613356 -9.463545
